<svg xmlns="http://www.w3.org/2000/svg" width="36" height="34" viewBox="0 0 36 34"><defs><style>.a{fill:#717490;}.b,.d{fill:none;}.b{stroke:#717490;stroke-width:2px;}.c{stroke:none;}</style></defs><g transform="translate(-722 -229)"><path class="a" d="M4,0H32a4,4,0,0,1,4,4V8a0,0,0,0,1,0,0H0A0,0,0,0,1,0,8V4A4,4,0,0,1,4,0Z" transform="translate(722 229)"/><g class="b" transform="translate(722 232)"><path class="c" d="M0,0H36a0,0,0,0,1,0,0V27a4,4,0,0,1-4,4H4a4,4,0,0,1-4-4V0A0,0,0,0,1,0,0Z"/><path class="d" d="M1,1H35a0,0,0,0,1,0,0V27a3,3,0,0,1-3,3H4a3,3,0,0,1-3-3V1A0,0,0,0,1,1,1Z"/></g><rect class="a" width="36" height="2" transform="translate(722 247)"/><rect class="a" width="2" height="26" transform="translate(733 235)"/><rect class="a" width="2" height="26" transform="translate(745 235)"/></g></svg>