<?xml version="1.0" standalone="no"?><!DOCTYPE svg PUBLIC "-//W3C//DTD SVG 1.1//EN" "http://www.w3.org/Graphics/SVG/1.1/DTD/svg11.dtd"><svg t="1668413873027" class="icon" viewBox="0 0 1024 1024" version="1.1" xmlns="http://www.w3.org/2000/svg" p-id="3536" xmlns:xlink="http://www.w3.org/1999/xlink" width="32" height="32"><path d="M160 704V192h32v512H160z m32 0q0 1.6-0.32 3.136t-0.896 2.976q-0.608 1.472-1.472 2.784-0.896 1.28-1.984 2.432-1.12 1.088-2.432 1.984-1.312 0.864-2.784 1.472-1.44 0.608-2.976 0.896-1.568 0.32-3.136 0.32-1.6 0-3.136-0.32t-2.976-0.896q-1.472-0.608-2.784-1.472-1.28-0.896-2.432-1.984-1.088-1.12-1.984-2.432-0.864-1.312-1.472-2.784-0.608-1.44-0.896-2.976Q160 705.568 160 704q0-1.6 0.32-3.136t0.896-2.976q0.608-1.472 1.472-2.784 0.896-1.28 1.984-2.432 1.12-1.088 2.432-1.984 1.312-0.864 2.784-1.472 1.44-0.608 2.976-0.896 1.568-0.32 3.136-0.32 1.6 0 3.136 0.32t2.976 0.896q1.472 0.608 2.784 1.472 1.28 0.896 2.432 1.984 1.088 1.12 1.984 2.432 0.864 1.312 1.472 2.784 0.608 1.44 0.896 2.976 0.32 1.568 0.32 3.136zM192 192q0 1.6-0.32 3.136t-0.896 2.976q-0.608 1.472-1.472 2.784-0.896 1.28-1.984 2.432-1.12 1.088-2.432 1.984-1.312 0.864-2.784 1.472-1.44 0.608-2.976 0.896-1.568 0.32-3.136 0.32-1.6 0-3.136-0.32t-2.976-0.896q-1.472-0.608-2.784-1.472-1.28-0.896-2.432-1.984-1.088-1.12-1.984-2.432-0.864-1.312-1.472-2.784-0.608-1.44-0.896-2.976Q160 193.568 160 192q0-1.6 0.32-3.136t0.896-2.976q0.608-1.472 1.472-2.784 0.896-1.28 1.984-2.432 1.12-1.088 2.432-1.984 1.312-0.864 2.784-1.472 1.44-0.608 2.976-0.896 1.568-0.32 3.136-0.32 1.6 0 3.136 0.32t2.976 0.896q1.472 0.608 2.784 1.472 1.28 0.896 2.432 1.984 1.088 1.12 1.984 2.432 0.864 1.312 1.472 2.784 0.608 1.44 0.896 2.976Q192 190.432 192 192z" fill="#FFE5B4" p-id="3537"></path><path d="M96 224m0 0l160 0q0 0 0 0l0 384q0 0 0 0l-160 0q0 0 0 0l0-384q0 0 0 0Z" fill="#f04864" p-id="3538" data-spm-anchor-id="a313x.7781069.0.i5" class=""></path><path d="M480 768V208h32V768h-32z m32 0q0 1.6-0.32 3.136t-0.896 2.976q-0.608 1.472-1.472 2.784-0.896 1.28-1.984 2.432-1.12 1.088-2.432 1.984-1.312 0.864-2.784 1.472-1.44 0.608-2.976 0.896-1.568 0.32-3.136 0.32-1.6 0-3.136-0.32t-2.976-0.896q-1.472-0.608-2.784-1.472-1.28-0.896-2.432-1.984-1.088-1.12-1.984-2.432-0.864-1.312-1.472-2.784-0.608-1.44-0.896-2.976Q480 769.568 480 768q0-1.6 0.32-3.136t0.896-2.976q0.608-1.472 1.472-2.784 0.896-1.28 1.984-2.432 1.12-1.088 2.432-1.984 1.312-0.864 2.784-1.472 1.44-0.608 2.976-0.896 1.568-0.32 3.136-0.32 1.6 0 3.136 0.32t2.976 0.896q1.472 0.608 2.784 1.472 1.28 0.896 2.432 1.984 1.088 1.12 1.984 2.432 0.864 1.312 1.472 2.784 0.608 1.44 0.896 2.976 0.32 1.568 0.32 3.136z m0-560q0 1.6-0.32 3.136t-0.896 2.976q-0.608 1.472-1.472 2.784-0.896 1.28-1.984 2.432-1.12 1.088-2.432 1.984-1.312 0.864-2.784 1.472-1.44 0.608-2.976 0.896-1.568 0.32-3.136 0.32-1.6 0-3.136-0.32t-2.976-0.896q-1.472-0.608-2.784-1.472-1.28-0.896-2.432-1.984-1.088-1.12-1.984-2.432-0.864-1.312-1.472-2.784-0.608-1.44-0.896-2.976Q480 209.568 480 208q0-1.6 0.32-3.136t0.896-2.976q0.608-1.472 1.472-2.784 0.896-1.28 1.984-2.432 1.12-1.088 2.432-1.984 1.312-0.864 2.784-1.472 1.44-0.608 2.976-0.896 1.568-0.32 3.136-0.32 1.6 0 3.136 0.32t2.976 0.896q1.472 0.608 2.784 1.472 1.28 0.896 2.432 1.984 1.088 1.12 1.984 2.432 0.864 1.312 1.472 2.784 0.608 1.44 0.896 2.976 0.32 1.568 0.32 3.136z" fill="#FFE5B4" p-id="3539"></path><path d="M416 480m0 0l160 0q0 0 0 0l0 224q0 0 0 0l-160 0q0 0 0 0l0-224q0 0 0 0Z" fill="#2fc25b" p-id="3540" data-spm-anchor-id="a313x.7781069.0.i6" class="selected"></path><path d="M800 832V160h32v672h-32z m32 0q0 1.6-0.32 3.136t-0.896 2.976q-0.608 1.472-1.472 2.784-0.896 1.28-1.984 2.432-1.12 1.088-2.432 1.984-1.312 0.864-2.784 1.472-1.44 0.608-2.976 0.896-1.568 0.32-3.136 0.32-1.6 0-3.136-0.32t-2.976-0.896q-1.472-0.608-2.784-1.472-1.28-0.896-2.432-1.984-1.088-1.12-1.984-2.432-0.864-1.312-1.472-2.784-0.608-1.44-0.896-2.976Q800 833.568 800 832q0-1.6 0.32-3.136t0.896-2.976q0.608-1.472 1.472-2.784 0.896-1.28 1.984-2.432 1.12-1.088 2.432-1.984 1.312-0.864 2.784-1.472 1.44-0.608 2.976-0.896 1.568-0.32 3.136-0.32 1.6 0 3.136 0.32t2.976 0.896q1.472 0.608 2.784 1.472 1.28 0.896 2.432 1.984 1.088 1.12 1.984 2.432 0.864 1.312 1.472 2.784 0.608 1.44 0.896 2.976 0.32 1.568 0.32 3.136z m0-672q0 1.6-0.32 3.136t-0.896 2.976q-0.608 1.472-1.472 2.784-0.896 1.28-1.984 2.432-1.12 1.088-2.432 1.984-1.312 0.864-2.784 1.472-1.44 0.608-2.976 0.896-1.568 0.32-3.136 0.32-1.6 0-3.136-0.32t-2.976-0.896q-1.472-0.608-2.784-1.472-1.28-0.896-2.432-1.984-1.088-1.12-1.984-2.432-0.864-1.312-1.472-2.784-0.608-1.44-0.896-2.976Q800 161.568 800 160q0-1.6 0.32-3.136t0.896-2.976q0.608-1.472 1.472-2.784 0.896-1.28 1.984-2.432 1.12-1.088 2.432-1.984 1.312-0.864 2.784-1.472 1.44-0.608 2.976-0.896 1.568-0.32 3.136-0.32 1.6 0 3.136 0.32t2.976 0.896q1.472 0.608 2.784 1.472 1.28 0.896 2.432 1.984 1.088 1.12 1.984 2.432 0.864 1.312 1.472 2.784 0.608 1.44 0.896 2.976 0.32 1.568 0.32 3.136z" fill="#FFE5B4" p-id="3541"></path><path d="M736 256m0 0l160 0q0 0 0 0l0 192q0 0 0 0l-160 0q0 0 0 0l0-192q0 0 0 0Z" fill="#f04864" p-id="3542" data-spm-anchor-id="a313x.7781069.0.i7" class=""></path></svg>