<svg xmlns="http://www.w3.org/2000/svg" width="45" height="48" viewBox="0 0 45 48"><defs><style>.a{fill:#3bd5b3;}.b{fill:#4a8bfe;}</style></defs><g transform="translate(-63.951 -64)"><path class="a" d="M271,256a14.76,14.76,0,1,0,15,14.758A14.88,14.88,0,0,0,271,256Zm0,22.137a7.38,7.38,0,1,1,7.5-7.379A7.44,7.44,0,0,1,271,278.137Z" transform="translate(-180.797 -180.931)"/><path class="b" d="M612.253,320l-9,6.678a7.249,7.249,0,0,1-.694,9.611l7.95,7.822A18.228,18.228,0,0,0,612.253,320Z" transform="translate(-507.051 -241.242)"/><path class="a" d="M261.544,602.56a7.587,7.587,0,0,1-10.612,0L240.32,613a22.76,22.76,0,0,0,31.874,0Z" transform="translate(-166.035 -507.512)"/><path class="b" d="M82.7,89.827a7.44,7.44,0,0,1,7.5-7.379V64A26.258,26.258,0,0,0,65.949,79.945a25.524,25.524,0,0,0,5.692,28.145L84.9,95.048A7.319,7.319,0,0,1,82.7,89.827Z" transform="translate(0 0)"/></g></svg>