<svg xmlns="http://www.w3.org/2000/svg" xmlns:xlink="http://www.w3.org/1999/xlink" width="442.597" height="327.425" viewBox="0 0 442.597 327.425"><defs><style>.a{opacity:0.17;fill:url(#a);}.b,.c,.d,.e,.f,.k{opacity:0.3;}.b{fill:url(#b);}.c{fill:url(#c);}.d{fill:url(#d);}.e{fill:url(#e);}.f{fill:url(#f);}.g{fill:url(#g);}.h{fill:#fff;}.i,.m{opacity:0.5;}.i{fill:url(#h);}.j{fill:#c4f2e2;}.k{fill:url(#i);}.l{fill:#3bd5b3;}.m{fill:url(#j);}</style><linearGradient id="a" x1="0.5" y1="1" x2="0.5" gradientUnits="objectBoundingBox"><stop offset="0" stop-color="#fff" stop-opacity="0"/><stop offset="0.77" stop-color="#4be2ac"/></linearGradient><linearGradient id="b" y1="1" y2="0" xlink:href="#a"/><linearGradient id="c" y1="1" y2="0" xlink:href="#a"/><linearGradient id="d" y1="1" y2="0" xlink:href="#a"/><linearGradient id="e" x1="0.5" y1="1" x2="0.5" gradientUnits="objectBoundingBox"><stop offset="0" stop-color="#6de7bb" stop-opacity="0.4"/><stop offset="0.77" stop-color="#55e2ac"/></linearGradient><linearGradient id="f" x1="0.5" y1="1" x2="0.5" y2="0" xlink:href="#e"/><linearGradient id="g" x1="0.5" y1="1" x2="0.5" gradientUnits="objectBoundingBox"><stop offset="0" stop-color="#009eaa" stop-opacity="0.02"/><stop offset="0.77" stop-color="#004c55" stop-opacity="0.2"/></linearGradient><linearGradient id="h" x1="0.5" x2="0.5" y2="1" gradientUnits="objectBoundingBox"><stop offset="0" stop-color="#39c190" stop-opacity="0.62"/><stop offset="0.77" stop-color="#1ab278"/><stop offset="1" stop-color="#1aba7d"/></linearGradient><linearGradient id="i" x1="0.5" y1="1" x2="0.5" gradientUnits="objectBoundingBox"><stop offset="0" stop-color="#30ceab" stop-opacity="0.639"/><stop offset="0.77" stop-color="#18af8d"/><stop offset="1" stop-color="#1ca8c1"/></linearGradient><linearGradient id="j" x1="0.001" y1="0.5" x2="1" y2="0.5" gradientUnits="objectBoundingBox"><stop offset="0" stop-color="#6de7bb" stop-opacity="0.62"/><stop offset="0.77" stop-color="#55e2ac"/></linearGradient></defs><g transform="translate(-3 -203.19)"><path class="a" d="M445.6,900.582C437.717,838.94,341.659,790.21,224.3,790.21S10.879,838.94,3,900.582Z" transform="translate(0 -369.966)"/><path class="b" d="M884.186,263.272a21.633,21.633,0,1,0,0-43.265c-.407,0-.784.1-1.187.126a23.879,23.879,0,0,0-45.7,0c-.4-.022-.78-.122-1.187-.122a21.633,21.633,0,1,0,0,43.265Z" transform="translate(-511.431 0)"/><path class="c" d="M161.116,468.9a21.633,21.633,0,1,0,0-43.265c-.407,0-.784.1-1.187.122a23.879,23.879,0,0,0-45.7,0c-.4-.022-.78-.118-1.187-.118a21.633,21.633,0,1,0,0,43.265Z" transform="translate(-55.72 -129.591)"/><path class="d" d="M988.364,610.188a12.8,12.8,0,1,0,0-25.607c-.24,0-.466.057-.7.072a14.132,14.132,0,0,0-27.048,0c-.237,0-.458-.07-.7-.07a12.8,12.8,0,1,0,0,25.607Z" transform="translate(-595.021 -234.093)"/><circle class="e" cx="7.358" cy="7.358" r="7.358" transform="translate(405.796 253.458)"/><circle class="f" cx="12.265" cy="12.265" r="12.265" transform="translate(97.983 204.403)"/><ellipse class="g" cx="81.187" cy="8.918" rx="81.187" ry="8.918" transform="translate(147.452 430.66)"/><path class="h" d="M548.005,354.55H453.2a27.584,27.584,0,0,0-27.584,27.587v121.28A27.584,27.584,0,0,0,453.2,531h94.8a27.585,27.585,0,0,0,27.587-27.587V382.137A27.585,27.585,0,0,0,548,354.55Z" transform="translate(-266.354 -95.394)"/><path class="i" d="M548.005,354.55H453.2a27.584,27.584,0,0,0-27.584,27.587v121.28A27.584,27.584,0,0,0,453.2,531h94.8a27.585,27.585,0,0,0,27.587-27.587V382.137A27.585,27.585,0,0,0,548,354.55Z" transform="translate(-266.354 -95.394)"/><path class="j" d="M516.3,354.55H421.5a27.585,27.585,0,0,0-27.587,27.591V503.417A27.584,27.584,0,0,0,421.5,531h94.8a27.584,27.584,0,0,0,27.587-27.587V382.137a27.584,27.584,0,0,0-27.591-27.587Z" transform="translate(-246.369 -95.394)"/><path class="k" d="M581.129,354.55H549.877L496.78,531h84.349a27.585,27.585,0,0,0,27.587-27.587V382.141a27.584,27.584,0,0,0-27.587-27.591Z" transform="translate(-311.202 -95.394)"/><path class="l" d="M421.5,354.544a27.585,27.585,0,0,0-27.587,27.591V503.411A27.584,27.584,0,0,0,421.5,530.994h10.449l53.1-176.454Z" transform="translate(-246.369 -95.387)"/><path class="h" d="M559.963,729.271a8.5,8.5,0,0,1,0,16.975H492.6a8.5,8.5,0,1,1,0-16.975Z" transform="translate(-302.871 -331.549)"/><path class="h" d="M524.855,638.252a8.5,8.5,0,1,1,0,16.975H492.6a8.5,8.5,0,1,1,0-16.975Z" transform="translate(-302.872 -274.185)"/><path class="h" d="M506.075,407.38a8.164,8.164,0,0,1,1.209.089,8.549,8.549,0,1,1-1.209-.089Z" transform="translate(-311.66 -128.689)"/><path class="h" d="M485.346,476.01,499.519,451.1a4.138,4.138,0,0,1,7.2,0l5.232,9.2,20.163-35.448a7.133,7.133,0,0,1,12.4,0l26.556,46.685a7.136,7.136,0,0,1-6.2,10.664H488.944a4.141,4.141,0,0,1-3.6-6.19Z" transform="translate(-303.654 -137.426)"/><path class="m" d="M649.294,514.146a3.768,3.768,0,0,1-3.3-1.938L637.177,496.4a3.784,3.784,0,1,1,6.6-3.7l8.8,15.814a3.772,3.772,0,0,1-3.291,5.606Zm0,0" transform="translate(-399.382 -181.242)"/></g></svg>