<svg xmlns="http://www.w3.org/2000/svg" xmlns:xlink="http://www.w3.org/1999/xlink" width="32" height="32" viewBox="0 0 32 32"><defs><style>.a{fill:#f0f1f5;}.b{fill:url(#a);}</style><linearGradient id="a" y1="1" x2="1" y2="0.5" gradientUnits="objectBoundingBox"><stop offset="0" stop-color="#199eff"/><stop offset="1" stop-color="#31bf41"/></linearGradient></defs><g transform="translate(-59.646 7)"><circle class="a" cx="16" cy="16" r="16" transform="translate(59.646 -7)"/><path class="b" d="M277.717,4.156m-4.183,0A4.183,4.183,0,1,0,277.717,0a4.17,4.17,0,0,0-4.183,4.156Z" transform="translate(-202.155 0.076)"/><path class="b" d="M74.33,507.821a16.081,16.081,0,0,0,6.151,0,3.32,3.32,0,0,1,3.854,2.417l.737,2.856a2.932,2.932,0,0,1-2.127,3.571,2.97,2.97,0,0,1-.733.092H72.6a2.932,2.932,0,0,1-2.86-3.662l.737-2.856A3.32,3.32,0,0,1,74.33,507.821Z" transform="translate(-2 -498.833)"/></g></svg>